<?xml version="1.0" standalone="no"?>
<!DOCTYPE svg PUBLIC "-//W3C//DTD SVG 1.1//EN" "http://www.w3.org/Graphics/SVG/1.1/DTD/svg11.dtd">
<svg t="1688007889152" class="icon" viewBox="0 0 1024 1024" version="1.1"
    xmlns="http://www.w3.org/2000/svg" p-id="975" xmlns:xlink="http://www.w3.org/1999/xlink"
    width="200" height="200">
    <path
        d="M572.032 162.090667c24.32 10.24 45.226667 24.32 64 43.093333 18.346667 18.346667 32.853333 39.68 43.093333 64 10.666667 24.746667 15.786667 50.773333 15.786667 78.08 0 27.306667-5.12 53.76-15.786667 78.506667-10.24 24.32-24.746667 45.226667-43.093333 64-3.925333 3.84-7.893333 7.466667-12.032 10.965333a346.112 346.112 0 0 1 114.474667 75.392c0.426667 0.426667 0.426667 0.853333 0.853333 0.853333 1.706667 1.706667 3.413333 3.84 4.693333 5.546667 1.28 2.133333 2.133333 4.266667 3.413334 6.4 0.853333 2.56 1.28 4.693333 2.133333 6.826667 0.426667 2.56 0.426667 4.693333 0.426667 7.253333 0 2.56 0 4.693333-0.426667 7.253333-0.853333 2.133333-1.28 4.693333-2.133333 6.826667-1.28 2.133333-2.133333 4.266667-3.413334 6.4-1.28 1.706667-2.986667 3.84-4.693333 5.546667-1.706667 1.706667-3.413333 2.986667-5.546667 4.266666-2.133333 1.706667-4.266667 2.56-6.4 3.413334-2.133333 0.853333-4.266667 1.706667-6.826666 2.133333a37.546667 37.546667 0 0 1-7.253334 0.853333 37.333333 37.333333 0 0 1-13.653333-2.986666 18.56 18.56 0 0 1-6.4-3.413334 27.392 27.392 0 0 1-5.546667-4.266666c-25.6-25.6-54.613333-45.226667-87.466666-58.88a265.6 265.6 0 0 0-98.858667-21.674667 216.277333 216.277333 0 0 1-15.573333 0 269.226667 269.226667 0 0 0-98.858667 21.674667c-32.853333 14.08-61.866667 33.28-87.04 58.88-25.6 25.173333-44.8 54.186667-58.88 87.04-14.506667 34.133333-21.76 69.546667-21.76 106.666666 0 2.56 0 4.693333-0.426667 7.253334a32 32 0 0 1-2.133333 6.826666c-0.853333 2.133333-2.133333 4.266667-3.413333 6.4-1.28 2.133333-2.986667 3.84-4.693334 5.546667-1.706667 1.706667-3.413333 2.986667-5.546666 4.693333-1.706667 1.28-3.84 2.133333-5.973334 2.986667-2.56 1.28-4.693333 1.706667-7.253333 2.133333a30.933333 30.933333 0 0 1-20.906667-2.133333 32 32 0 0 1-11.946666-7.68 32 32 0 0 1-7.68-11.946667 30.933333 30.933333 0 0 1-2.986667-14.08c0-46.933333 8.96-92.16 27.306667-135.253333 17.493333-41.386667 42.666667-78.08 74.666666-110.08a344.661333 344.661333 0 0 1 114.986667-76.714667 196.906667 196.906667 0 0 1-54.912-74.922666c-10.666667-24.746667-15.786667-51.2-15.786667-78.506667 0-27.306667 5.12-53.333333 15.786667-78.08 10.24-24.32 24.32-45.653333 43.093333-64 18.346667-18.773333 39.68-32.853333 64-43.093333a194.986667 194.986667 0 0 1 78.08-15.786667c27.306667 0 53.76 5.12 78.506667 15.786667z m-168.96 94.72a128.170667 128.170667 0 0 0-27.306667 140.373333c6.4 15.36 15.36 29.013333 27.306667 40.96 11.946667 11.52 25.6 20.906667 40.533333 27.306667 16.213333 6.826667 32.853333 9.813333 49.92 9.813333 17.493333 0 34.133333-2.986667 49.92-9.813333 15.36-6.4 29.013333-15.786667 40.96-27.306667 11.52-11.946667 20.906667-25.6 27.306667-40.96 6.826667-15.786667 9.813333-32.426667 9.813333-49.92 0-17.066667-2.986667-33.706667-9.813333-49.92a135.68 135.68 0 0 0-27.306667-40.533333c-11.946667-11.946667-25.6-20.906667-40.96-27.306667-15.786667-6.826667-32.426667-10.24-49.92-10.24a128.170667 128.170667 0 0 0-90.453333 37.546667zM713.002667 694.613333l6.4 6.4c16.64 16.64 43.946667 16.64 60.586666 0l6.4-6.4a53.333333 53.333333 0 0 1 75.52 0c20.906667 20.48 20.906667 54.613333 0 75.52l-66.133333 66.56c-2.133333 3.413333-4.266667 6.4-7.253333 9.386667-10.666667 10.666667-24.746667 15.786667-38.826667 15.786667-14.08 0-28.16-5.12-38.826667-15.786667-2.986667-2.986667-5.12-5.973333-7.253333-9.386667l-66.133333-66.56a53.333333 53.333333 0 0 1 0-75.52 53.333333 53.333333 0 0 1 75.52 0z"
        p-id="976" fill="orange"></path>
</svg>